# xmcd
#
# Track frame offsets: 
#        182
#        11422
#        21857
#        33562
#        44020
#        56535
#        67382
#        80805
#        92005
#        105815
#        116802
#        128382
#        140737
#        151197
#        160290
#        175720
#
# Disc length: 2500 seconds
#
# Revision: 4
# Processed by: cddbd v1.5.2PL0 Copyright (c) Steve Scherf et al.
# Submitted via: ExactAudioCopy v0.95a5
#
DISCID=d209c210
DTITLE=Eric Clapton And The Yardbirds - The Blues Collection No. 14
DYEAR=1993
DGENRE=Blues
TTITLE0=For Your Love
TTITLE1=Putty In Your Hands
TTITLE2=Got To Hurry
TTITLE3=I Wish You Would
TTITLE4=Good Morning Little Schoolgirl
TTITLE5=Evil Hearted You
TTITLE6=Still I'm Sad
TTITLE7=Heart Full Of Soul
TTITLE8=Jeff's Blues
TTITLE9=Shapes Of Things
TTITLE10=Steeled Blues
TTITLE11=Stroll On
TTITLE12=A Certain Girl
TTITLE13=I Ain't Got You
TTITLE14=Train Kept A Rolling
TTITLE15=I'm A Man
EXTD=
EXTT0=
EXTT1=
EXTT2=
EXTT3=
EXTT4=
EXTT5=
EXTT6=
EXTT7=
EXTT8=
EXTT9=
EXTT10=
EXTT11=
EXTT12=
EXTT13=
EXTT14=
EXTT15=
PLAYORDER=
